<svg width="90" height="47" viewBox="0 0 90 47" fill="none" xmlns="http://www.w3.org/2000/svg">
<g id="Vector">
<path d="M67.6995 46.8957C79.9869 46.8957 90 36.5014 90 23.5508C90 10.6001 80.0391 0.10153 67.7517 0.10153C63.8783 0.10153 55.5362 0.101484 55.3187 0.101512C54.01 0.10168 20.8552 0.570844 21.2915 0.101846C20.8553 0.101846 23.293 4.60687 24.9195 8.19908C26.1084 10.8248 27.4833 13.0352 28.7083 12.8729C29.7988 12.8729 55.5975 12.8336 59.2452 12.8729C62.3497 12.9064 65.0608 13.0496 66.8892 13.1433C67.8922 13.1947 68.641 13.2331 69.0605 13.2331C74.12 13.2331 78.2215 17.8525 78.2215 23.5508C78.2215 29.249 74.0678 33.7642 69.0083 33.7642C68.5422 33.7642 67.6995 33.7642 66.6089 33.7642C65.1064 33.8474 63.0578 33.775 61.156 33.7642C58.3824 33.7483 55.9211 33.7642 55.9211 33.7642C55.9211 33.7642 54.499 33.764 54.0628 33.8684C53.6265 33.9729 45.9399 47 45.9399 47C45.9399 47 63.0668 46.7915 67.6995 46.8957Z" fill="#F25D27"/>
<path d="M30.0163 16.5163H62.298L55.3182 30.1169H36.9961L30.0163 16.5163Z" fill="#F25D27"/>
<path d="M0 6.7279e-06L15.569 6.60978e-06C15.569 6.60978e-06 17.314 -0.00274808 17.9528 0.104215C18.415 0.181592 19.7133 2.57944 19.7133 2.57944L20.7538 5.15885L22.6155 10.2004L25.4294 17.9833L27.929 24.27L28.6561 26.0259L29.5286 27.9018L30.9041 30.1323L31.9279 31.4192L32.4942 32.0669L33.0185 32.5917L33.6729 33.0607L34.3272 33.2952L35.1997 33.5297L37.599 33.7642H52.8674L44.5789 46.8957H24.2937L24.0756 46.8664L23.3976 46.6476L22.8688 46.3513L20.7538 45.0485L19.7132 44.3163L19.0713 43.6527L17.1967 41.4195L15.322 38.3488C15.322 38.3488 14.9213 37.4596 14.6965 37.047C14.1745 36.0891 13.6395 34.7197 13.6395 34.7197L12.7334 32.1227L10.467 25.0422L7.93484 17.9703L0 6.7279e-06Z" fill="#F25D27"/>
</g>
</svg>
